<svg width="20" height="19" viewBox="0 0 20 19" fill="none" xmlns="http://www.w3.org/2000/svg">
<path d="M16.2567 6.00009L7.6027 1.7439C1.77566 -1.10734 -0.650458 1.31878 2.20811 7.1385L3.47157 9.70663L2.14343 12.3071C-0.861626 18.2002 1.51168 20.5735 7.40473 17.5684L16.1677 13.1088C20.0941 11.0983 20.1413 7.90574 16.2567 6.00009ZM12.5421 10.1722L7.02573 10.2557C6.80856 10.2584 6.62143 10.1739 6.48561 10.038C6.34979 9.90221 6.26527 9.71509 6.26799 9.49791C6.27324 9.07805 6.62506 8.72623 7.04493 8.72098L12.5613 8.63749C12.9811 8.63223 13.3243 8.97536 13.319 9.39523C13.3138 9.81509 12.962 10.1669 12.5421 10.1722Z" fill="#292D32"/>
</svg>
