<svg viewBox="0 0 24 24" fill="none" xmlns="http://www.w3.org/2000/svg" id="Widget-2--Streamline-Solar.svg"><desc>Widget 2 Streamline Icon: https://streamlinehq.com</desc><path fill-rule="evenodd" clip-rule="evenodd" d="M0.24 5.6898C0.24 2.6799 2.6799 0.24 5.6898 0.24S11.1395 2.6799 11.1395 5.6898S8.6996 11.1395 5.6898 11.1395S0.24 8.6996 0.24 5.6898Z" fill="#000000" stroke-width="1"></path><path fill-rule="evenodd" clip-rule="evenodd" d="M12.8605 18.3103C12.8605 15.3005 15.3004 12.8605 18.3103 12.8605C21.32 12.8605 23.76 15.3004 23.76 18.3103C23.76 21.32 21.32 23.76 18.3103 23.76C15.3005 23.76 12.8605 21.32 12.8605 18.3103Z" fill="#000000" stroke-width="1"></path><path d="M0.24 18.468C0.24 15.9734 0.24 14.726 1.015 13.951C1.79 13.176 3.0373 13.176 5.532 13.176S9.274 13.176 10.049 13.951C10.824 14.726 10.824 15.9734 10.824 18.468S10.824 22.21 10.049 22.985C9.274 23.76 8.0267 23.76 5.532 23.76S1.79 23.76 1.015 22.985C0.24 22.21 0.24 20.9627 0.24 18.468Z" fill="#000000" stroke-width="1"></path><path d="M13.176 5.532C13.176 3.0373 13.176 1.79 13.951 1.015C14.726 0.24 15.9734 0.24 18.468 0.24S22.21 0.24 22.985 1.015C23.76 1.79 23.76 3.0373 23.76 5.532S23.76 9.274 22.985 10.049C22.21 10.824 20.9627 10.824 18.468 10.824S14.726 10.824 13.951 10.049C13.176 9.274 13.176 8.0267 13.176 5.532Z" fill="#000000" stroke-width="1"></path></svg>