<svg width="112" height="112" viewBox="0 0 112 112" fill="none" xmlns="http://www.w3.org/2000/svg">
<ellipse cx="5" cy="4.5" rx="5" ry="4.5" transform="matrix(1 0 0 -1 39 12)" fill="#F15B59"/>
<ellipse cx="5" cy="4.5" rx="5" ry="4.5" transform="matrix(1 0 0 -1 100 77)" fill="#F15B59"/>
<ellipse cx="5" cy="4.5" rx="5" ry="4.5" transform="matrix(1 0 0 -1 15 96)" fill="#F15B59"/>
<path d="M57.4896 11.0715L58.4423 0.934343L64.5602 1.5093L64.4579 2.59825L59.5675 2.13866L59.2456 5.56391L63.8192 5.99373L63.7169 7.08268L59.1433 6.65286L58.8195 10.0979L63.7891 10.5649L63.6868 11.6539L57.4896 11.0715Z" fill="white"/>
<path d="M68.667 4.94227L69.5753 8.44515L72.1873 5.94065L73.4882 6.30961L70.0741 9.3101L71.4046 13.6562L70.1037 13.2873L69.152 9.93743L66.5834 12.2889L65.2825 11.9199L68.6583 8.90858L67.366 4.5733L68.667 4.94227Z" fill="white"/>
<path d="M72.1035 16.9434L76.7734 7.53906L77.7886 8.04319L77.2491 9.12968L77.3738 9.1916C77.5099 9.11118 77.692 9.01285 77.9199 8.89661C78.1523 8.77887 78.4338 8.71139 78.7643 8.69418C79.0992 8.67547 79.4893 8.77667 79.9346 8.99778C80.5105 9.28375 80.9466 9.67979 81.243 10.1859C81.5393 10.692 81.6795 11.2704 81.6635 11.9212C81.6475 12.5719 81.4612 13.2565 81.1045 13.9749C80.7448 14.6992 80.3098 15.2659 79.7996 15.6749C79.2908 16.081 78.746 16.3211 78.1652 16.3954C77.5858 16.4666 77.0111 16.3607 76.4412 16.0777C76.0018 15.8596 75.6862 15.6122 75.4942 15.3355C75.3037 15.0559 75.1836 14.7872 75.134 14.5294C75.0859 14.2687 75.0541 14.0568 75.0389 13.8938L74.9498 13.8496L73.1544 17.4653L72.1035 16.9434ZM76.1083 11.4718C75.8518 11.9883 75.7013 12.4816 75.6566 12.9516C75.6134 13.4186 75.682 13.8357 75.8624 14.2028C76.0442 14.5669 76.3459 14.8536 76.7674 15.063C77.2068 15.2811 77.6309 15.3474 78.0397 15.2618C78.4531 15.1747 78.8319 14.9706 79.1764 14.6495C79.5253 14.3268 79.8207 13.9221 80.0624 13.4353C80.3012 12.9544 80.4422 12.4841 80.4854 12.0245C80.5331 11.5634 80.4645 11.1463 80.2797 10.7733C80.0993 10.3988 79.7864 10.101 79.3412 9.87987C78.9137 9.6676 78.5007 9.59759 78.1022 9.66984C77.7051 9.73911 77.3366 9.92986 76.9965 10.2421C76.6579 10.5513 76.3619 10.9612 76.1083 11.4718Z" fill="white"/>
<path d="M87.776 10.8109L81.9071 19.1311L80.9483 18.4548L86.8173 10.1346L87.776 10.8109Z" fill="white"/>
<path d="M87.3574 23.7793C86.8606 23.3014 86.5383 22.7639 86.3907 22.1667C86.2455 21.5718 86.2723 20.9606 86.471 20.3332C86.6721 19.7081 87.0461 19.1113 87.5929 18.5428C88.1443 17.9694 88.7295 17.5689 89.3486 17.3412C89.9701 17.1158 90.5809 17.064 91.181 17.1859C91.7835 17.3101 92.3332 17.6112 92.8301 18.089C93.327 18.5669 93.648 19.1033 93.7932 19.6982C93.9408 20.2954 93.9129 20.9078 93.7095 21.5353C93.5085 22.1651 93.1323 22.7666 92.5809 23.3399C92.0341 23.9085 91.4511 24.3043 90.8319 24.5273C90.2151 24.7527 89.6055 24.8032 89.0029 24.679C88.4028 24.5571 87.8543 24.2572 87.3574 23.7793ZM88.0881 23.0197C88.4655 23.3827 88.8691 23.5846 89.2989 23.6254C89.7286 23.6663 90.1537 23.5853 90.574 23.3826C90.9943 23.1798 91.3814 22.8945 91.7352 22.5266C92.089 22.1587 92.3602 21.7597 92.5487 21.3294C92.7372 20.8991 92.8038 20.4688 92.7486 20.0386C92.6933 19.6083 92.4769 19.2117 92.0995 18.8487C91.7221 18.4857 91.3173 18.285 90.8852 18.2465C90.4532 18.2081 90.0258 18.2914 89.6032 18.4965C89.1806 18.7017 88.7924 18.9882 88.4386 19.3561C88.0847 19.724 87.8147 20.1219 87.6285 20.5498C87.4423 20.9777 87.378 21.4056 87.4355 21.8334C87.4931 22.2612 87.7106 22.6567 88.0881 23.0197Z" fill="white"/>
<path d="M91.17 27.575L97.2861 23.0025L97.9648 23.9103L97.041 24.601L97.0887 24.6647C97.4746 24.5499 97.871 24.5681 98.2778 24.7192C98.6846 24.8703 99.0249 25.129 99.2988 25.4953C99.3504 25.5643 99.4136 25.6516 99.4883 25.7571C99.563 25.8626 99.6176 25.9439 99.652 26.0009L98.6964 26.7154C98.6805 26.6776 98.6379 26.5957 98.5685 26.4696C98.5037 26.3442 98.4247 26.2192 98.3314 26.0944C98.1091 25.7971 97.8483 25.5783 97.5489 25.4379C97.2541 25.2983 96.9473 25.2421 96.6284 25.2695C96.3141 25.2975 96.019 25.4147 95.7429 25.6211L91.8726 28.5147L91.17 27.575Z" fill="white"/>
<path d="M96.2212 35.5895C95.8814 34.9369 95.7324 34.2989 95.7741 33.6756C95.8202 33.0537 96.0369 32.4794 96.4241 31.9528C96.8157 31.4275 97.3585 30.9843 98.0523 30.623C98.7461 30.2618 99.4234 30.0699 100.084 30.0472C100.749 30.026 101.349 30.1659 101.883 30.467C102.422 30.7695 102.85 31.2265 103.169 31.8379C103.352 32.1907 103.475 32.5697 103.537 32.9749C103.598 33.3801 103.57 33.7926 103.452 34.2126C103.338 34.6311 103.108 35.0366 102.763 35.4291C102.418 35.8217 101.929 36.1825 101.297 36.5116L100.856 36.7412L98.1381 31.52L99.0377 31.0517L101.205 35.2145C101.587 35.0155 101.888 34.7615 102.109 34.4525C102.33 34.1465 102.455 33.8087 102.483 33.4391C102.513 33.0724 102.43 32.701 102.234 32.3247C102.018 31.9101 101.728 31.605 101.365 31.4094C101.006 31.2151 100.621 31.1221 100.211 31.1303C99.8004 31.1385 99.4084 31.2398 99.0351 31.4342L98.4353 31.7464C97.9238 32.0127 97.5361 32.3267 97.2722 32.6883C97.0128 33.0512 96.8731 33.4397 96.8532 33.8536C96.8363 34.266 96.9372 34.6824 97.1561 35.1028C97.2984 35.3762 97.4652 35.6033 97.6564 35.784C97.8521 35.9661 98.07 36.0974 98.31 36.178C98.5529 36.257 98.8149 36.2794 99.096 36.2452L99.3372 37.3975C98.9411 37.4692 98.5486 37.4475 98.1598 37.3323C97.774 37.2156 97.4134 37.011 97.078 36.7185C96.7456 36.4245 96.46 36.0482 96.2212 35.5895Z" fill="white"/>
<path d="M111.399 50.6908L111.588 51.9093L104.925 52.9403C104.238 53.0468 103.598 52.9797 103.008 52.7391C102.421 52.5012 101.926 52.1132 101.525 51.5751C101.126 51.0364 100.866 50.3724 100.743 49.583C100.621 48.7937 100.669 48.082 100.886 47.4481C101.106 46.8136 101.46 46.2927 101.947 45.8853C102.438 45.4807 103.027 45.2251 103.715 45.1187L110.377 44.0876L110.566 45.3061L104.002 46.3219C103.51 46.3979 103.09 46.5737 102.74 46.8492C102.394 47.1242 102.142 47.4784 101.984 47.912C101.83 48.3483 101.797 48.8465 101.883 49.4066C101.97 49.9667 102.153 50.4315 102.431 50.8009C102.713 51.1698 103.06 51.4313 103.473 51.5854C103.89 51.7423 104.344 51.7827 104.835 51.7067L111.399 50.6908Z" fill="white"/>
<path d="M107.201 60.8952L106.946 59.83C107.124 59.7709 107.299 59.6801 107.47 59.5577C107.644 59.4387 107.79 59.2721 107.908 59.058C108.026 58.8439 108.092 58.5663 108.106 58.2252C108.125 57.7582 108.033 57.3647 107.831 57.0447C107.631 56.7281 107.368 56.5631 107.04 56.5498C106.748 56.538 106.514 56.6346 106.336 56.8397C106.159 57.0448 106.005 57.3702 105.874 57.816L105.549 58.9373C105.356 59.6128 105.082 60.1108 104.728 60.4314C104.376 60.7522 103.934 60.9017 103.401 60.8801C102.964 60.8623 102.578 60.7206 102.244 60.4549C101.909 60.1926 101.652 59.8338 101.471 59.3787C101.291 58.9235 101.213 58.3995 101.237 57.8068C101.268 57.0285 101.463 56.3913 101.822 55.895C102.18 55.3987 102.687 55.0959 103.342 54.9865L103.575 56.1105C103.16 56.1998 102.843 56.3876 102.626 56.674C102.409 56.9637 102.29 57.3487 102.271 57.8289C102.249 58.3753 102.347 58.8138 102.566 59.1445C102.788 59.4786 103.062 59.6523 103.39 59.6656C103.655 59.6764 103.881 59.5926 104.067 59.4145C104.257 59.2364 104.404 58.9571 104.509 58.5766L104.859 57.317C105.053 56.625 105.33 56.1221 105.692 55.8084C106.056 55.4981 106.501 55.3537 107.028 55.3751C107.458 55.3925 107.834 55.5289 108.155 55.7841C108.477 56.0426 108.723 56.386 108.895 56.8143C109.066 57.2458 109.141 57.7298 109.119 58.2663C109.089 59.0214 108.899 59.6074 108.55 60.0245C108.202 60.4449 107.752 60.7351 107.201 60.8952Z" fill="white"/>
<path d="M95.3946 79.0499L103.821 84.7659L100.371 89.8511L99.4658 89.2371L102.223 85.1722L99.3762 83.2408L96.7974 87.0424L95.8922 86.4284L98.4711 82.6268L95.6076 80.6843L92.8054 84.815L91.9003 84.201L95.3946 79.0499Z" fill="white"/>
<path d="M95.3786 91.8068L91.8702 90.92L92.8114 94.4142L91.8627 95.3778L90.872 90.9418L86.4211 90.0202L87.3699 89.0566L90.7649 89.8318L89.9371 86.4492L90.8858 85.4856L91.9044 89.8932L96.3273 90.8432L95.3786 91.8068Z" fill="white"/>
<path d="M83.1904 89.0667L89.2103 97.6696L88.2816 98.3195L87.5861 97.3256L87.4721 97.4054C87.4775 97.5634 87.4766 97.7703 87.4695 98.0261C87.4616 98.2865 87.3861 98.5659 87.2429 98.8642C87.099 99.1672 86.8233 99.4613 86.416 99.7463C85.8892 100.115 85.3326 100.308 84.7464 100.326C84.1602 100.344 83.5853 100.19 83.0216 99.8643C82.458 99.5386 81.9462 99.0472 81.4864 98.39C81.0227 97.7274 80.7335 97.0742 80.6188 96.4304C80.5059 95.7893 80.556 95.1961 80.7689 94.6506C80.9838 94.1079 81.3519 93.6541 81.8733 93.2892C82.2752 93.008 82.6436 92.8493 82.9784 92.8133C83.3151 92.7799 83.6085 92.8032 83.8585 92.8831C84.1105 92.9657 84.3117 93.0393 84.4621 93.1039L84.5435 93.0469L82.2291 89.7393L83.1904 89.0667ZM86.0762 95.2025C85.7456 94.73 85.3847 94.3616 84.9934 94.0974C84.6041 93.8358 84.2051 93.6963 83.7965 93.6789C83.3897 93.6642 82.9936 93.7917 82.6079 94.0616C82.206 94.3428 81.9448 94.6834 81.8242 95.0833C81.7027 95.4879 81.7005 95.9182 81.8174 96.3744C81.9336 96.8352 82.1475 97.2883 82.4591 97.7336C82.7669 98.1736 83.1123 98.5225 83.4951 98.7805C83.8771 99.0432 84.2761 99.1827 84.692 99.199C85.1072 99.22 85.5184 99.088 85.9258 98.8029C86.3168 98.5293 86.576 98.2003 86.7034 97.8158C86.8327 97.434 86.8418 97.0192 86.7305 96.5711C86.6212 96.1258 86.4031 95.6696 86.0762 95.2025Z" fill="white"/>
<path d="M81.0692 105.763L76.5755 96.6268L77.6283 96.109L82.122 105.246L81.0692 105.763Z" fill="white"/>
<path d="M69.8971 99.1762C70.5549 98.9698 71.1811 98.9452 71.7759 99.1025C72.3674 99.2607 72.8907 99.5777 73.3456 100.053C73.7974 100.53 74.1413 101.144 74.3775 101.897C74.6157 102.656 74.686 103.362 74.5885 104.014C74.4878 104.667 74.24 105.228 73.8449 105.696C73.4466 106.165 72.9186 106.502 72.2609 106.709C71.6031 106.915 70.9784 106.939 70.3869 106.781C69.7921 106.624 69.2684 106.305 68.8156 105.826C68.3597 105.347 68.0127 104.728 67.7745 103.969C67.5383 103.216 67.4711 102.515 67.5727 101.865C67.6712 101.216 67.9196 100.656 68.3178 100.188C68.7129 99.7197 69.2393 99.3826 69.8971 99.1762ZM70.2127 100.182C69.713 100.339 69.3421 100.596 69.0999 100.953C68.8577 101.31 68.7247 101.722 68.7007 102.188C68.6767 102.654 68.7412 103.131 68.894 103.618C69.0468 104.105 69.2667 104.534 69.5536 104.906C69.8406 105.278 70.186 105.543 70.5899 105.701C70.9939 105.859 71.4457 105.86 71.9453 105.703C72.445 105.546 72.8154 105.288 73.0566 104.927C73.2977 104.567 73.4298 104.152 73.4528 103.683C73.4758 103.213 73.4109 102.735 73.258 102.248C73.1052 101.761 72.8858 101.333 72.5999 100.965C72.3139 100.596 71.9695 100.334 71.5666 100.179C71.1636 100.024 70.7123 100.025 70.2127 100.182Z" fill="white"/>
<path d="M64.7439 100.693L65.8053 108.255L64.6828 108.412L64.5225 107.27L64.4437 107.281C64.3583 107.675 64.1515 108.013 63.8232 108.297C63.4948 108.581 63.1042 108.755 62.6513 108.818C62.5659 108.83 62.459 108.843 62.3305 108.858C62.2021 108.873 62.1046 108.881 62.038 108.884L61.8721 107.702C61.9129 107.707 62.0053 107.709 62.1491 107.709C62.2902 107.712 62.4379 107.703 62.5922 107.682C62.9598 107.63 63.2772 107.507 63.5444 107.312C63.8087 107.121 64.0057 106.879 64.1353 106.587C64.2621 106.298 64.3016 105.983 64.2536 105.641L63.582 100.856L64.7439 100.693Z" fill="white"/>
<path d="M55.2211 101.261C55.9567 101.277 56.5876 101.454 57.1138 101.79C57.6367 102.13 58.0357 102.597 58.3108 103.189C58.5826 103.786 58.7098 104.475 58.6923 105.257C58.6748 106.039 58.5169 106.725 58.2186 107.315C57.9169 107.908 57.5056 108.366 56.9845 108.69C56.46 109.016 55.8532 109.172 55.1639 109.156C54.7663 109.147 54.3751 109.072 53.9904 108.931C53.6057 108.79 53.2576 108.567 52.9462 108.261C52.6347 107.959 52.3899 107.563 52.2119 107.071C52.0339 106.58 51.9529 105.978 51.9688 105.266L51.9799 104.769L57.8648 104.9L57.8422 105.914L53.1502 105.809C53.1405 106.24 53.2181 106.626 53.3828 106.968C53.5443 107.31 53.7802 107.582 54.0906 107.785C54.3977 107.987 54.7634 108.093 55.1875 108.102C55.6547 108.113 56.0616 108.006 56.408 107.782C56.7511 107.561 57.0179 107.268 57.2084 106.904C57.3988 106.541 57.4988 106.148 57.5082 105.728L57.5233 105.052C57.5362 104.475 57.4477 103.984 57.2578 103.579C57.0646 103.177 56.7914 102.867 56.4382 102.65C56.0849 102.437 55.6714 102.325 55.1975 102.314C54.8894 102.307 54.6101 102.344 54.3596 102.425C54.1058 102.509 53.8858 102.636 53.6996 102.808C53.5134 102.983 53.3676 103.202 53.2622 103.465L52.1361 103.121C52.264 102.739 52.472 102.406 52.7602 102.121C53.0483 101.839 53.4012 101.621 53.8191 101.468C54.2368 101.318 54.7042 101.249 55.2211 101.261Z" fill="white"/>
<path d="M34.6629 107.312L33.5037 106.892L35.8008 100.554C36.0379 99.8997 36.4039 99.3714 36.8987 98.969C37.3893 98.5687 37.9671 98.3216 38.6322 98.2277C39.2961 98.1369 40.0036 98.2276 40.7546 98.4998C41.5055 98.7719 42.1068 99.1556 42.5584 99.6506C43.0089 100.149 43.2958 100.709 43.4191 101.332C43.5381 101.957 43.4791 102.597 43.2419 103.251L40.9449 109.589L39.7857 109.169L42.0489 102.924C42.2183 102.457 42.2662 102.004 42.1927 101.565C42.118 101.129 41.9284 100.737 41.6239 100.391C41.3152 100.046 40.8944 99.7773 40.3616 99.5842C39.8287 99.3911 39.3334 99.3279 38.8756 99.3946C38.4166 99.4645 38.0204 99.6435 37.6868 99.9315C37.349 100.222 37.0955 100.6 36.9261 101.068L34.6629 107.312Z" fill="white"/>
<path d="M27.7938 98.7503L28.8503 99.0396C28.8162 99.2242 28.8117 99.4209 28.8368 99.6296C28.8572 99.8394 28.9328 100.048 29.0636 100.254C29.1944 100.461 29.4059 100.653 29.6981 100.829C30.0982 101.07 30.4873 101.179 30.8654 101.156C31.2389 101.134 31.5104 100.982 31.68 100.701C31.8307 100.451 31.8589 100.199 31.7647 99.9451C31.6704 99.6908 31.4595 99.3989 31.1318 99.0695L30.3052 98.2454C29.8063 97.7507 29.5018 97.2707 29.3916 96.8055C29.2797 96.343 29.3617 95.8834 29.6374 95.4266C29.8635 95.052 30.1734 94.7823 30.5672 94.6173C30.9582 94.4507 31.3965 94.3978 31.8824 94.4588C32.3682 94.5198 32.8651 94.7036 33.373 95.0101C34.0398 95.4126 34.5044 95.8905 34.7667 96.4437C35.0289 96.9969 35.0504 97.5867 34.831 98.213L33.7338 97.8759C33.8553 97.4692 33.843 97.1017 33.6966 96.7734C33.5474 96.4433 33.2671 96.1541 32.8557 95.9057C32.3875 95.6231 31.9558 95.4981 31.5607 95.5306C31.161 95.5642 30.8763 95.7214 30.7068 96.0024C30.5698 96.2294 30.5345 96.4674 30.6009 96.7166C30.6656 96.9685 30.8394 97.2322 31.1223 97.5075L32.0578 98.4206C32.5708 98.9238 32.8779 99.4092 32.979 99.8767C33.0755 100.345 32.9876 100.805 32.7153 101.256C32.4926 101.625 32.1921 101.889 31.8137 102.048C31.4324 102.205 31.0128 102.255 30.5548 102.2C30.094 102.142 29.6337 101.975 29.174 101.697C28.5271 101.307 28.1048 100.858 27.9072 100.352C27.7067 99.8437 27.6689 99.3099 27.7938 98.7503Z" fill="white"/>
<path d="M17.5402 79.6707L8.48782 84.3316L5.67494 78.8683L6.64737 78.3676L8.89585 82.7347L11.9546 81.1598L9.85175 77.0756L10.8242 76.575L12.927 80.6592L16.0034 79.0752L13.7185 74.6374L14.6909 74.1367L17.5402 79.6707Z" fill="white"/>
<path d="M6.35205 73.5481L8.81494 70.8968L5.29813 70.0441L4.90864 68.7491L9.27526 70.0108L12.2214 66.5496L12.6109 67.8446L10.3003 70.45L13.6648 71.3486L14.0543 72.6436L9.69912 71.42L6.74154 74.8431L6.35205 73.5481Z" fill="white"/>
<path d="M14.6159 64.1932L4.17728 65.3266L4.05493 64.1997L5.26091 64.0687L5.24589 63.9304C5.10478 63.859 4.92386 63.7586 4.70311 63.6292C4.47871 63.4969 4.27022 63.2962 4.07764 63.027C3.88141 62.7549 3.75646 62.3718 3.7028 61.8775C3.63339 61.2383 3.73203 60.6575 3.9987 60.1351C4.26537 59.6128 4.67712 59.183 5.23394 58.8458C5.79077 58.5087 6.46788 58.2968 7.26527 58.2102C8.06926 58.1229 8.78101 58.184 9.40051 58.3935C10.0167 58.6033 10.5126 58.9328 10.8881 59.3821C11.2603 59.8318 11.4807 60.373 11.5494 61.0056C11.6024 61.4933 11.564 61.8925 11.4344 62.2033C11.3015 62.5144 11.1398 62.7604 10.9494 62.9411C10.7557 63.1221 10.5943 63.263 10.4652 63.3637L10.4759 63.4625L14.4893 63.0268L14.6159 64.1932ZM7.84866 63.7678C8.42199 63.7055 8.91866 63.5666 9.33865 63.351C9.75535 63.1357 10.0697 62.8532 10.2818 62.5035C10.4906 62.1541 10.5696 61.7454 10.5188 61.2775C10.4658 60.7899 10.2931 60.3969 10.0007 60.0986C9.70462 59.7973 9.32852 59.5881 8.87239 59.471C8.41261 59.3509 7.91253 59.3201 7.37214 59.3788C6.83835 59.4368 6.36622 59.5714 5.95575 59.7826C5.54163 59.9909 5.22725 60.2735 5.0126 60.6301C4.7943 60.9839 4.71198 61.4079 4.76564 61.9022C4.81716 62.3766 4.98071 62.7623 5.25631 63.0591C5.52861 63.3562 5.88788 63.5639 6.33412 63.6822C6.77707 63.8008 7.28191 63.8293 7.84866 63.7678Z" fill="white"/>
<path d="M1.00321 54.2093L11.1747 54.6685L11.1218 55.8406L0.950292 55.3814L1.00321 54.2093Z" fill="white"/>
<path d="M12.1467 47.5979C12.0121 48.274 11.7331 48.8352 11.3096 49.2815C10.8868 49.7245 10.3577 50.0314 9.72211 50.2023C9.0872 50.3699 8.38292 50.3766 7.60929 50.2226C6.82915 50.0672 6.17631 49.7902 5.65076 49.3916C5.12587 48.9897 4.753 48.5031 4.53217 47.932C4.31198 47.3575 4.2692 46.7323 4.40382 46.0562C4.53845 45.38 4.81716 44.8205 5.23994 44.3775C5.66336 43.9312 6.19416 43.6246 6.83232 43.4576C7.47113 43.2875 8.18061 43.28 8.96075 43.4354C9.73439 43.5894 10.382 43.8671 10.9037 44.2683C11.426 44.6663 11.7972 45.1526 12.0174 45.727C12.2382 46.2981 12.2813 46.9218 12.1467 47.5979ZM11.113 47.3921C11.2153 46.8785 11.1678 46.4297 10.9705 46.0457C10.7732 45.6617 10.4759 45.3474 10.0785 45.1027C9.68119 44.8579 9.23221 44.6857 8.73162 44.5861C8.23103 44.4864 7.74872 44.4732 7.28467 44.5463C6.82063 44.6195 6.42233 44.7954 6.08976 45.0739C5.75719 45.3523 5.53978 45.7484 5.43751 46.262C5.33524 46.7756 5.38437 47.2247 5.5849 47.6093C5.78543 47.994 6.086 48.3089 6.48661 48.5543C6.88722 48.7997 7.33782 48.9722 7.83841 49.0719C8.339 49.1715 8.81969 49.1845 9.28049 49.1106C9.74128 49.0368 10.1363 48.8603 10.4656 48.5812C10.795 48.302 11.0108 47.9057 11.113 47.3921Z" fill="white"/>
<path d="M13.2959 42.3282L6.15422 39.6244L6.55556 38.5643L7.63425 38.9727L7.66241 38.8983C7.35834 38.6344 7.1608 38.2902 7.06981 37.8659C6.97882 37.4417 7.0143 37.0156 7.17624 36.5879C7.20675 36.5073 7.24644 36.4071 7.29531 36.2874C7.34418 36.1677 7.38344 36.078 7.41311 36.0184L8.529 36.4408C8.50562 36.4745 8.4594 36.5545 8.39034 36.6807C8.31936 36.8027 8.25629 36.9365 8.20113 37.0822C8.0697 37.4294 8.02519 37.7669 8.0676 38.0949C8.10809 38.4185 8.2255 38.7075 8.41983 38.9618C8.61223 39.2118 8.86961 39.3979 9.19198 39.5199L13.7113 41.2309L13.2959 42.3282Z" fill="white"/>
<path d="M17.3506 33.7611C16.982 34.3979 16.5234 34.8658 15.9749 35.1648C15.4252 35.4594 14.8243 35.5844 14.1721 35.54C13.5188 35.4911 12.8536 35.2707 12.1767 34.8787C11.4998 34.4868 10.9746 34.0181 10.6011 33.4725C10.2264 32.9223 10.0229 32.3411 9.99061 31.7288C9.95711 31.1119 10.1131 30.5052 10.4585 29.9086C10.6578 29.5644 10.9119 29.2577 11.221 28.9885C11.53 28.7194 11.8933 28.5218 12.3109 28.3959C12.7256 28.2684 13.1911 28.2449 13.7074 28.3255C14.2237 28.4062 14.7902 28.625 15.4069 28.9821L15.8371 29.2312L12.8877 34.3253L12.01 33.8171L14.3616 29.7556C13.9887 29.5397 13.6128 29.4216 13.2339 29.4014C12.8566 29.3783 12.5045 29.454 12.1775 29.6285C11.8521 29.8001 11.5832 30.0695 11.3706 30.4367C11.1365 30.8411 11.0342 31.2492 11.064 31.6609C11.0925 32.068 11.2203 32.4427 11.4473 32.7847C11.6744 33.1268 11.97 33.4033 12.3343 33.6143L12.9195 33.953C13.4185 34.242 13.8914 34.4009 14.3382 34.4297C14.7837 34.4541 15.1864 34.3636 15.5465 34.1585C15.9037 33.9517 16.201 33.6432 16.4385 33.233C16.5929 32.9663 16.6952 32.7037 16.7451 32.4454C16.7939 32.1826 16.7879 31.9283 16.7273 31.6825C16.6637 31.4351 16.5421 31.2019 16.3625 30.983L17.2058 30.1615C17.4787 30.4574 17.6708 30.8003 17.7821 31.1902C17.8905 31.5785 17.9111 31.9926 17.8441 32.4325C17.7742 32.8708 17.6097 33.3136 17.3506 33.7611Z" fill="white"/>
<path d="M21.9156 12.8482L22.8403 12.0326L27.2996 17.0885C27.76 17.6105 28.0481 18.1851 28.1637 18.8123C28.2797 19.4348 28.2193 20.0603 27.9827 20.6889C27.7438 21.315 27.3249 21.8922 26.7258 22.4206C26.1268 22.949 25.5017 23.2926 24.8507 23.4513C24.1975 23.6076 23.5681 23.5905 22.9624 23.3999C22.3571 23.2046 21.8242 22.846 21.3638 22.324L16.9045 17.2681L17.8292 16.4525L22.2227 21.4338C22.5516 21.8067 22.9263 22.0662 23.3469 22.2123C23.7652 22.3559 24.1995 22.3773 24.6496 22.2764C25.1001 22.1707 25.5378 21.9305 25.9629 21.5556C26.3879 21.1807 26.681 20.7764 26.842 20.3427C27.0009 19.9065 27.0339 19.4729 26.9412 19.0421C26.8487 18.6066 26.6381 18.2024 26.3092 17.8295L21.9156 12.8482Z" fill="white"/>
<path d="M32.7118 10.9208L31.9523 11.7101C31.8064 11.5919 31.6359 11.4938 31.4407 11.416C31.2466 11.3335 31.0276 11.3003 30.7836 11.3162C30.5395 11.3321 30.2701 11.4262 29.9754 11.5984C29.5719 11.8342 29.2899 12.1237 29.1296 12.4669C28.9705 12.8055 28.9737 13.1165 29.1392 13.3998C29.2864 13.6516 29.4942 13.797 29.7626 13.836C30.031 13.8749 30.3883 13.8293 30.8343 13.6992L31.9535 13.3677C32.6266 13.1664 33.1938 13.1286 33.655 13.2545C34.1146 13.3775 34.479 13.6694 34.7482 14.1301C34.9689 14.5079 35.0575 14.9091 35.0139 15.3338C34.9732 15.7568 34.8098 16.167 34.5238 16.5645C34.2378 16.9619 33.8386 17.3103 33.3264 17.6096C32.6539 18.0025 32.012 18.1818 31.4008 18.1474C30.7895 18.113 30.2614 17.8496 29.8163 17.3573L30.6374 16.5551C30.9363 16.8564 31.2649 17.0214 31.6233 17.05C31.9845 17.077 32.3726 16.9692 32.7875 16.7267C33.2597 16.4509 33.5761 16.1317 33.7366 15.7691C33.8984 15.4021 33.8965 15.0769 33.7309 14.7936C33.5971 14.5647 33.405 14.4198 33.1544 14.3589C32.9022 14.2951 32.5876 14.3216 32.2105 14.4383L30.9611 14.8228C30.2737 15.0325 29.7005 15.0699 29.2416 14.935C28.7839 14.7955 28.4222 14.4982 28.1563 14.0432C27.9389 13.6712 27.8511 13.2811 27.8928 12.8729C27.9373 12.463 28.0937 12.0703 28.3618 11.6948C28.6328 11.3176 29.0001 10.9936 29.4637 10.7228C30.1162 10.3415 30.712 10.1853 31.2512 10.2541C31.7933 10.3212 32.2802 10.5435 32.7118 10.9208Z" fill="white"/>
</svg>
