<svg width="24px" height="24px" viewBox="0 0 155 44" fill="none" xmlns="http://www.w3.org/2000/svg">
<path d="M14.9574 0H0V44H14.9574V0Z" fill="#F9B218"/>
<path d="M37.0002 0H20.4683V18.8571H37.0002V0Z" fill="#F15B59"/>
<path d="M37.0002 25.9286H20.4683V44H37.0002V25.9286Z" fill="#F15B59"/>
<path d="M58.38 29L53.66 22.8V29H50.24V14.96H53.66V21.12L58.34 14.96H62.36L56.92 21.84L62.56 29H58.38ZM70.8253 29.14C69.5053 29.14 68.292 28.8333 67.1853 28.22C66.092 27.6067 65.2186 26.7533 64.5653 25.66C63.9253 24.5533 63.6053 23.3133 63.6053 21.94C63.6053 20.5667 63.9253 19.3333 64.5653 18.24C65.2186 17.1467 66.092 16.2933 67.1853 15.68C68.292 15.0667 69.5053 14.76 70.8253 14.76C72.1453 14.76 73.352 15.0667 74.4453 15.68C75.552 16.2933 76.4186 17.1467 77.0453 18.24C77.6853 19.3333 78.0053 20.5667 78.0053 21.94C78.0053 23.3133 77.6853 24.5533 77.0453 25.66C76.4053 26.7533 75.5386 27.6067 74.4453 28.22C73.352 28.8333 72.1453 29.14 70.8253 29.14ZM70.8253 26.02C71.9453 26.02 72.8386 25.6467 73.5053 24.9C74.1853 24.1533 74.5253 23.1667 74.5253 21.94C74.5253 20.7 74.1853 19.7133 73.5053 18.98C72.8386 18.2333 71.9453 17.86 70.8253 17.86C69.692 17.86 68.7853 18.2267 68.1053 18.96C67.4386 19.6933 67.1053 20.6867 67.1053 21.94C67.1053 23.18 67.4386 24.1733 68.1053 24.92C68.7853 25.6533 69.692 26.02 70.8253 26.02ZM99.228 14.96L95.568 29H91.428L89.188 19.76L86.868 29H82.728L79.168 14.96H82.828L84.848 25.18L87.348 14.96H91.108L93.508 25.18L95.548 14.96H99.228ZM107.583 29.14C106.263 29.14 105.05 28.8333 103.943 28.22C102.85 27.6067 101.976 26.7533 101.323 25.66C100.683 24.5533 100.363 23.3133 100.363 21.94C100.363 20.5667 100.683 19.3333 101.323 18.24C101.976 17.1467 102.85 16.2933 103.943 15.68C105.05 15.0667 106.263 14.76 107.583 14.76C108.903 14.76 110.11 15.0667 111.203 15.68C112.31 16.2933 113.176 17.1467 113.803 18.24C114.443 19.3333 114.763 20.5667 114.763 21.94C114.763 23.3133 114.443 24.5533 113.803 25.66C113.163 26.7533 112.296 27.6067 111.203 28.22C110.11 28.8333 108.903 29.14 107.583 29.14ZM107.583 26.02C108.703 26.02 109.596 25.6467 110.263 24.9C110.943 24.1533 111.283 23.1667 111.283 21.94C111.283 20.7 110.943 19.7133 110.263 18.98C109.596 18.2333 108.703 17.86 107.583 17.86C106.45 17.86 105.543 18.2267 104.863 18.96C104.196 19.6933 103.863 20.6867 103.863 21.94C103.863 23.18 104.196 24.1733 104.863 24.92C105.543 25.6533 106.45 26.02 107.583 26.02ZM123.826 29L120.906 23.7H120.086V29H116.666V14.96H122.406C123.512 14.96 124.452 15.1533 125.226 15.54C126.012 15.9267 126.599 16.46 126.986 17.14C127.372 17.8067 127.566 18.5533 127.566 19.38C127.566 20.3133 127.299 21.1467 126.766 21.88C126.246 22.6133 125.472 23.1333 124.446 23.44L127.686 29H123.826ZM120.086 21.28H122.206C122.832 21.28 123.299 21.1267 123.606 20.82C123.926 20.5133 124.086 20.08 124.086 19.52C124.086 18.9867 123.926 18.5667 123.606 18.26C123.299 17.9533 122.832 17.8 122.206 17.8H120.086V21.28ZM137.853 29L133.133 22.8V29H129.713V14.96H133.133V21.12L137.813 14.96H141.833L136.393 21.84L142.033 29H137.853ZM147.298 26.2H153.338V29H143.418V26.4L149.418 17.76H143.418V14.96H153.338V17.56L147.298 26.2Z" fill="white"/>
</svg>
