<svg width="35px" height="35px" viewBox="0 0 42 42" fill="none">
<path d="M39.9 9.09985C41.0601 9.09985 42 8.15993 42 6.99985C42 5.83976 41.0601 4.89985 39.9 4.89985H4.2V3.4999C4.2 2.33982 3.26009 1.3999 2.1 1.3999C0.939914 1.3999 0 2.33982 0 3.4999V23.0999C0 24.26 0.939914 25.1999 2.1 25.1999C3.26009 25.1999 4.2 24.26 4.2 23.0999V21.6998C4.2 15.2084 9.09554 9.87283 15.4 9.17745V18.1997H13.3C12.9134 18.1997 12.6 18.513 12.6 18.8996V39.8996C12.6 40.2862 12.9134 40.5996 13.3 40.5996H39.9C40.2866 40.5996 40.6 40.2862 40.6 39.8996V18.8996C40.6 18.513 40.2866 18.1997 39.9 18.1997H37.8V9.09985H39.9ZM39.9 6.29988C40.2869 6.29988 40.6 6.61299 40.6 6.99985C40.6 7.38671 40.2869 7.69982 39.9 7.69982H4.2V6.29988H39.9ZM2.79997 23.0999C2.79997 23.4867 2.48686 23.7998 2.1 23.7998C1.71314 23.7998 1.40003 23.4867 1.40003 23.0999V3.4999C1.40003 3.11304 1.71314 2.79993 2.1 2.79993C2.48694 2.79993 2.79997 3.11304 2.79997 3.4999V5.5999V8.39988V23.0999ZM4.2 15.5865V9.09993H10.6865C7.86294 10.471 5.57107 12.7628 4.2 15.5865ZM39.2 39.1997H14V19.5997H16.0972C16.0981 19.5997 16.099 19.5998 16.1 19.5998C16.101 19.5998 16.1018 19.5997 16.1028 19.5997H37.0972C37.0981 19.5997 37.099 19.5998 37.1 19.5998C37.101 19.5998 37.1018 19.5997 37.1028 19.5997H39.2V39.1997ZM36.4 18.1997H16.8V9.09985H36.4V18.1997Z" fill="black"/>
<path d="M37.0999 20.9995H16.0999C15.7133 20.9995 15.3999 21.3129 15.3999 21.6995V37.0995C15.3999 37.4861 15.7133 37.7994 16.0999 37.7994H37.0999C37.4865 37.7994 37.7998 37.4861 37.7998 37.0995V21.6995C37.7998 21.313 37.4864 20.9995 37.0999 20.9995ZM36.3998 36.3996H16.7998V22.3995H36.3998V36.3996Z" fill="black"/>
<path d="M23.2953 30.0685C23.5333 30.8879 23.9788 31.6186 24.572 32.1997H23.8001C23.4135 32.1997 23.1001 32.5131 23.1001 32.8997C23.1001 33.2862 23.4135 33.5996 23.8001 33.5996H32.2001C32.5867 33.5996 32.9001 33.2863 32.9001 32.8997C32.9001 32.513 32.5866 32.1997 32.2001 32.1997H31.4282C32.3361 31.3103 32.9001 30.0712 32.9001 28.6997V25.8997C32.9001 25.5131 32.5866 25.1997 32.2001 25.1997H23.8001H20.3001C19.9135 25.1997 19.6001 25.5131 19.6001 25.8997C19.6001 28.0501 21.2125 29.8194 23.2953 30.0685ZM31.5001 28.6997C31.5001 30.633 29.9333 32.1998 28.0001 32.1998C26.0669 32.1998 24.5001 30.633 24.5001 28.6997V26.5997H31.5001V28.6997ZM23.1001 26.5997V28.6116C22.1152 28.3588 21.3409 27.5847 21.0881 26.5997H23.1001Z" fill="black"/>
</svg>
