<svg width="35px" height="35px" viewBox="0 0 42 42" fill="none">
<g clip-path="url(#clip0_126_133)">
<path d="M41.0498 6.69323H36.9028V6.23959C36.9028 4.70839 35.6571 3.46265 34.1259 3.46265C32.5947 3.46265 31.3489 4.70839 31.3489 6.23959V6.69323H28.1523V6.23959C28.1523 4.70839 26.9065 3.46265 25.3753 3.46265C23.8441 3.46265 22.5984 4.70839 22.5984 6.23959V6.69323H19.4016V6.23959C19.4016 4.70839 18.1559 3.46265 16.6247 3.46265C15.0935 3.46265 13.8477 4.70839 13.8477 6.23959V6.69323H10.651V6.23959C10.651 4.70839 9.40524 3.46265 7.87405 3.46265C6.34285 3.46265 5.09711 4.70839 5.09711 6.23959V6.69323H0.950226C0.425416 6.69323 0 7.11864 0 7.64345V37.5874C0 38.1122 0.425416 38.5376 0.950226 38.5376H41.0498C41.5746 38.5376 42 38.1122 42 37.5874V7.64345C42 7.11864 41.5746 6.69323 41.0498 6.69323ZM34.1259 5.363C34.6091 5.363 35.0023 5.75621 35.0023 6.23949V9.04722C35.0023 9.53051 34.6091 9.92371 34.1259 9.92371C33.6426 9.92371 33.2494 9.53051 33.2494 9.04722V7.64431C33.2494 7.64402 33.2494 7.64374 33.2494 7.64336C33.2494 7.64298 33.2494 7.64279 33.2494 7.64241V6.23949C33.2494 5.75621 33.6426 5.363 34.1259 5.363ZM25.3753 5.363C25.8586 5.363 26.2518 5.75621 26.2518 6.23949V9.04722C26.2518 9.53051 25.8586 9.92371 25.3753 9.92371C24.892 9.92371 24.4988 9.53051 24.4988 9.04722V7.64431C24.4988 7.64402 24.4988 7.64374 24.4988 7.64336C24.4988 7.64298 24.4988 7.64279 24.4988 7.64241V6.23949C24.4988 5.75621 24.8919 5.363 25.3753 5.363ZM15.7482 6.23949C15.7482 5.75621 16.1414 5.363 16.6247 5.363C17.108 5.363 17.5012 5.75621 17.5012 6.23949V7.6425C17.5012 7.64279 17.5012 7.64307 17.5012 7.64345C17.5012 7.64383 17.5012 7.64402 17.5012 7.6444V9.04732C17.5012 9.5306 17.108 9.9238 16.6247 9.9238C16.1414 9.9238 15.7482 9.5306 15.7482 9.04732V6.23949ZM7.87414 5.363C8.35743 5.363 8.75063 5.75621 8.75063 6.23949V9.04722C8.75063 9.53051 8.35743 9.92371 7.87414 9.92371C7.39086 9.92371 6.99766 9.53051 6.99766 9.04722V7.64431C6.99766 7.64402 6.99766 7.64374 6.99766 7.64336C6.99766 7.64298 6.99766 7.64279 6.99766 7.64241V6.23949C6.99766 5.75621 7.39076 5.363 7.87414 5.363ZM5.0972 8.59368V9.04732C5.0972 10.5785 6.34295 11.8243 7.87414 11.8243C9.40534 11.8243 10.6511 10.5785 10.6511 9.04732V8.59368H13.8478V9.04732C13.8478 10.5785 15.0936 11.8243 16.6248 11.8243C18.156 11.8243 19.4017 10.5785 19.4017 9.04732V8.59368H22.5985V9.04732C22.5985 10.5785 23.8442 11.8243 25.3754 11.8243C26.9066 11.8243 28.1524 10.5785 28.1524 9.04732V8.59368H31.349V9.04732C31.349 10.5785 32.5948 11.8243 34.126 11.8243C35.6571 11.8243 36.9029 10.5785 36.9029 9.04732V8.59368H40.0995V13.1299H1.90045V8.59368H5.0972ZM1.90045 36.637V15.0302H40.0995V36.637H1.90045Z" fill="black"/>
<path d="M9.16841 19.4727H6.07913C5.55432 19.4727 5.12891 19.8981 5.12891 20.4229C5.12891 20.9477 5.55432 21.3731 6.07913 21.3731H9.16841C9.69322 21.3731 10.1186 20.9477 10.1186 20.4229C10.1186 19.8981 9.69322 19.4727 9.16841 19.4727Z" fill="black"/>
<path d="M18.0839 19.4727H14.9947C14.4698 19.4727 14.0444 19.8981 14.0444 20.4229C14.0444 20.9477 14.4698 21.3731 14.9947 21.3731H18.0839C18.6088 21.3731 19.0342 20.9477 19.0342 20.4229C19.0342 19.8981 18.6088 19.4727 18.0839 19.4727Z" fill="black"/>
<path d="M27 19.4727H23.9107C23.3859 19.4727 22.9604 19.8981 22.9604 20.4229C22.9604 20.9477 23.3859 21.3731 23.9107 21.3731H27C27.5248 21.3731 27.9502 20.9477 27.9502 20.4229C27.9502 19.8981 27.5248 19.4727 27 19.4727Z" fill="black"/>
<path d="M35.9155 19.4727H32.8262C32.3014 19.4727 31.876 19.8981 31.876 20.4229C31.876 20.9477 32.3014 21.3731 32.8262 21.3731H35.9155C36.4403 21.3731 36.8657 20.9477 36.8657 20.4229C36.8657 19.8981 36.4403 19.4727 35.9155 19.4727Z" fill="black"/>
<path d="M9.16841 24.8367H6.07913C5.55432 24.8367 5.12891 25.2621 5.12891 25.7869C5.12891 26.3117 5.55432 26.7371 6.07913 26.7371H9.16841C9.69322 26.7371 10.1186 26.3117 10.1186 25.7869C10.1186 25.2621 9.69322 24.8367 9.16841 24.8367Z" fill="black"/>
<path d="M18.0839 24.8367H14.9947C14.4698 24.8367 14.0444 25.2621 14.0444 25.7869C14.0444 26.3117 14.4698 26.7371 14.9947 26.7371H18.0839C18.6088 26.7371 19.0342 26.3117 19.0342 25.7869C19.0342 25.2621 18.6088 24.8367 18.0839 24.8367Z" fill="black"/>
<path d="M27 24.8367H23.9107C23.3859 24.8367 22.9604 25.2621 22.9604 25.7869C22.9604 26.3117 23.3859 26.7371 23.9107 26.7371H27C27.5248 26.7371 27.9502 26.3117 27.9502 25.7869C27.9502 25.2621 27.5248 24.8367 27 24.8367Z" fill="black"/>
<path d="M35.9155 24.8367H32.8262C32.3014 24.8367 31.876 25.2621 31.876 25.7869C31.876 26.3117 32.3014 26.7371 32.8262 26.7371H35.9155C36.4403 26.7371 36.8657 26.3117 36.8657 25.7869C36.8657 25.2621 36.4403 24.8367 35.9155 24.8367Z" fill="black"/>
<path d="M9.16841 30.2004H6.07913C5.55432 30.2004 5.12891 30.6259 5.12891 31.1507C5.12891 31.6755 5.55432 32.1009 6.07913 32.1009H9.16841C9.69322 32.1009 10.1186 31.6755 10.1186 31.1507C10.1186 30.6259 9.69322 30.2004 9.16841 30.2004Z" fill="black"/>
<path d="M18.0839 30.2004H14.9947C14.4698 30.2004 14.0444 30.6259 14.0444 31.1507C14.0444 31.6755 14.4698 32.1009 14.9947 32.1009H18.0839C18.6088 32.1009 19.0342 31.6755 19.0342 31.1507C19.0342 30.6259 18.6088 30.2004 18.0839 30.2004Z" fill="black"/>
<path d="M27 30.2004H23.9107C23.3859 30.2004 22.9604 30.6259 22.9604 31.1507C22.9604 31.6755 23.3859 32.1009 23.9107 32.1009H27C27.5248 32.1009 27.9502 31.6755 27.9502 31.1507C27.9502 30.6259 27.5248 30.2004 27 30.2004Z" fill="black"/>
<path d="M35.9155 30.2004H32.8262C32.3014 30.2004 31.876 30.6259 31.876 31.1507C31.876 31.6755 32.3014 32.1009 32.8262 32.1009H35.9155C36.4403 32.1009 36.8657 31.6755 36.8657 31.1507C36.8657 30.6259 36.4403 30.2004 35.9155 30.2004Z" fill="black"/>
</g>
</svg>
