<svg width="35px" height="35px" viewBox="0 0 42 42" fill="none">
<g clip-path="url(#clip0_126_164)">
<path d="M41.1763 4.70972H38.4765C38.0216 4.70972 37.6529 5.07846 37.6529 5.53338V12.5803H36.1133C35.956 12.5803 35.8076 12.6531 35.7113 12.7775C35.615 12.9018 35.5817 13.0639 35.6213 13.2161L37.6529 21.0495V36.4665C37.6529 36.9214 38.0216 37.2901 38.4765 37.2901H41.1763C41.6312 37.2901 42 36.9212 42 36.4665V5.53338C42 5.07846 41.6312 4.70972 41.1763 4.70972Z" fill="black"/>
<path d="M35.3595 15.6259L32.882 15.8583C32.5399 15.4116 31.9095 15.2846 31.4174 15.5831L28.9042 17.107L27.4995 9.7043C27.3967 9.16294 26.9236 8.77124 26.3727 8.77124H5.31086C4.75978 8.77124 4.28684 9.16308 4.18406 9.7043L2.13547 20.5005C0.849005 21.351 0 22.8097 0 24.4671V30.3292C0 31.3117 0.796488 32.1082 1.77897 32.1082H2.78806V34.521C2.78806 36.0502 4.02778 37.2899 5.55697 37.2899C7.08631 37.2899 8.32588 36.0502 8.32588 34.521V32.1082H23.3575V34.521C23.3575 36.0502 24.5972 37.2899 26.1264 37.2899C27.6558 37.2899 28.8953 36.0502 28.8953 34.521V32.1082H29.9044C30.8869 32.1082 31.6834 31.3117 31.6834 30.3292V24.4671C31.6834 22.8095 30.8344 21.3509 29.5481 20.5003L29.3487 19.4491L32.5753 17.4929C32.7927 17.3611 32.9479 17.1665 33.0343 16.9469L35.462 16.7192C35.764 16.6909 35.9859 16.4233 35.9574 16.1213C35.9291 15.8194 35.6595 15.5972 35.3595 15.6259ZM5.47784 28.9042C4.03411 28.9042 2.86381 27.7339 2.86381 26.2902C2.86381 24.8464 4.03411 23.6761 5.47784 23.6761C6.92158 23.6761 8.09188 24.8464 8.09188 26.2902C8.09188 27.7339 6.92158 28.9042 5.47784 28.9042ZM18.4431 19.714H18.0019L18.0119 17.7124C18.013 17.4878 18.1966 17.3052 18.4212 17.3052H18.4431V19.714ZM18.4212 15.0718C16.9712 15.0718 15.7857 16.2514 15.7785 17.7011L15.7684 19.714H4.75316C4.70811 19.714 4.66348 19.7161 4.61856 19.7174L6.26053 11.0648H19.32C19.1879 11.356 19.1139 11.679 19.1139 12.0196C19.1139 13.2979 20.1502 14.334 21.4284 14.334C22.7067 14.334 23.7429 13.2979 23.7429 12.0196C23.7429 11.679 23.6688 11.356 23.5367 11.0648H25.4233L26.3972 16.197C25.4662 15.2832 24.915 15.0718 24.4169 15.0718C23.7934 15.0718 19.0442 15.0718 18.4212 15.0718ZM26.4983 19.714H24.3581V17.3672C24.8066 17.6993 25.7099 18.687 26.4983 19.714ZM26.2057 28.9042C24.762 28.9042 23.5917 27.7339 23.5917 26.2902C23.5917 24.8464 24.762 23.6761 26.2057 23.6761C27.6494 23.6761 28.8197 24.8464 28.8197 26.2902C28.8197 27.7339 27.6493 28.9042 26.2057 28.9042Z" fill="black"/>
</g>
<defs>
<clipPath id="clip0_126_164">
<rect width="42" height="42" fill="white"/>
</clipPath>
</defs>
</svg>
