<svg width="35px" height="35px" viewBox="0 0 42 42" fill="none">
<g clip-path="url(#clip0_126_218)">
<path d="M20.9999 41.5405C10.5983 41.5405 0.0327148 39.3093 0.0327148 35.0437C0.0327148 31.2374 8.17022 29.6624 11.6483 29.1702H11.7796C12.2718 29.1702 12.6983 29.5312 12.764 30.0233C12.7968 30.2858 12.7312 30.5483 12.5671 30.7452C12.403 30.9421 12.1733 31.1062 11.9108 31.139C4.65928 32.189 1.96865 34.0921 1.96865 35.0765C1.96865 36.914 9.38428 39.6046 20.9671 39.6046C32.5499 39.6046 39.9655 36.914 39.9655 35.0765C39.9655 34.0921 37.2421 32.189 29.9249 31.139C29.6624 31.1062 29.4327 30.9749 29.2687 30.7452C29.1046 30.5483 29.039 30.2858 29.0718 30.0233C29.1374 29.5312 29.564 29.1702 30.0562 29.1702H30.1874C33.6983 29.6624 41.9015 31.2374 41.9015 35.0437C41.9343 39.2765 31.4015 41.5405 20.9999 41.5405ZM20.3108 34.5843C19.8187 34.1249 8.46553 23.3952 8.46553 12.8624C8.46553 5.97178 14.0765 0.36084 20.9671 0.36084C27.8577 0.36084 33.4687 5.97178 33.4687 12.8624C33.4687 23.0999 22.1155 34.0921 21.6233 34.5515L20.9671 35.2077L20.3108 34.5843ZM20.9999 2.32959C15.1921 2.32959 10.4671 7.05459 10.4671 12.8624C10.4671 21.0983 18.5062 29.9249 20.9999 32.4515C23.5265 29.8593 31.5655 20.8687 31.5655 12.8624C31.5327 7.0874 26.8077 2.32959 20.9999 2.32959ZM20.9999 18.4405C17.7187 18.4405 15.0608 15.7827 15.0608 12.5015C15.0608 9.22021 17.7187 6.5624 20.9999 6.5624C24.2812 6.5624 26.939 9.22021 26.939 12.5015C26.939 15.7827 24.2812 18.4405 20.9999 18.4405ZM20.9999 8.53115C18.8015 8.53115 17.0296 10.303 17.0296 12.5015C17.0296 14.6999 18.8015 16.4718 20.9999 16.4718C23.1983 16.4718 24.9702 14.6999 24.9702 12.5015C24.9702 10.303 23.1655 8.53115 20.9999 8.53115Z" fill="black"/>
</g>
<defs>
<clipPath id="clip0_126_218">
<rect width="42" height="42" fill="white"/>
</clipPath>
</defs>
</svg>
