<svg width="35px" height="35px" viewBox="0 0 58 58" fill="none">
<path d="M11.4229 24.8886C13.3084 24.3834 14.4273 22.4455 13.9221 20.56C13.4169 18.6746 11.479 17.5557 9.59354 18.0609C7.70812 18.5661 6.58921 20.504 7.09438 22.3894C7.59956 24.2749 9.53751 25.3938 11.4229 24.8886Z" fill="black"/>
<path d="M16.9468 44.1795H12.6421C12.6421 44.1795 12.4155 44.1795 12.2343 44.1795C10.2858 43.9982 8.60928 42.5935 8.11085 40.6451L5.16553 29.6794C4.98428 29.0451 4.34991 28.7279 3.80616 28.8638C3.17178 29.0451 2.8546 29.6794 2.99053 30.2232L5.89053 41.1888C6.66085 44.0435 9.06241 46.1279 12.0077 46.3545C12.2796 46.3998 12.5968 46.3998 12.5968 46.3998H16.9015C17.5358 46.3998 17.989 45.9013 18.0343 45.267C18.0343 44.6326 17.5812 44.1795 16.9468 44.1795Z" fill="black"/>
<path d="M22.0217 38.017H16.131C15.9951 35.7967 15.6326 33.5764 15.0888 31.356C15.0435 31.1748 14.9076 30.7217 14.9076 30.6764C14.1373 27.8217 11.4185 26.0092 8.56385 26.281C8.56385 26.281 8.20135 26.3264 8.11072 26.3264C7.06853 26.5982 6.43416 27.6857 6.70603 28.7732L9.74197 40.056C10.0592 41.3248 11.1467 42.2764 12.506 42.367H12.7779H19.8013V50.4326C19.8013 51.656 20.7529 52.6529 22.0217 52.6529C23.2451 52.6529 24.242 51.7014 24.242 50.4326V40.2373C24.242 39.6482 24.0154 39.1045 23.5623 38.6967C23.1545 38.2435 22.5654 38.017 22.0217 38.017Z" fill="black"/>
<path d="M50.718 22.4177C51.2232 20.5323 50.1043 18.5944 48.2188 18.0892C46.3334 17.584 44.3955 18.7029 43.8903 20.5883C43.3851 22.4738 44.504 24.4117 46.3894 24.9169C48.2749 25.4221 50.2128 24.3032 50.718 22.4177Z" fill="black"/>
<path d="M40.8722 44.1797H45.1769C45.1769 44.1797 45.4034 44.1797 45.5847 44.1797C47.5331 43.9984 49.2097 42.5938 49.7081 40.6453L52.6534 29.6797C52.8347 29.0453 53.469 28.7281 54.0128 28.8641C54.6472 29.0453 54.9644 29.6797 54.8284 30.2234L51.9284 41.1891C51.1581 44.0438 48.7565 46.1281 45.8112 46.3547C45.5394 46.4 45.2222 46.4 45.2222 46.4H40.9175C40.2831 46.4 39.83 45.9016 39.7847 45.2672C39.7847 44.6328 40.2831 44.1797 40.8722 44.1797Z" fill="black"/>
<path d="M35.797 38.0172H41.6876C41.8235 35.7969 42.186 33.5766 42.7298 31.3563C42.7751 31.175 42.911 30.7219 42.911 30.6766C43.6813 27.8219 46.4001 26.0094 49.2548 26.2813C49.2548 26.2813 49.6173 26.3266 49.7079 26.3266C50.7501 26.5985 51.3845 27.686 51.1126 28.7735L48.0313 40.0563C47.7142 41.325 46.6267 42.2766 45.2673 42.3672H44.9954H38.0173V50.4329C38.0173 51.6563 37.0657 52.6532 35.797 52.6532C34.5282 52.6532 33.5767 51.7016 33.5767 50.4329V40.2375C33.5767 39.6485 33.8032 39.1047 34.2563 38.6969C34.6642 38.2438 35.2532 38.0172 35.797 38.0172Z" fill="black"/>
<path d="M40.5092 32.0813H17.5811V34.8H40.5092V32.0813Z" fill="black"/>
<path d="M29.0452 22.8375C30.847 22.8375 32.3077 21.3768 32.3077 19.575C32.3077 17.7732 30.847 16.3125 29.0452 16.3125C27.2434 16.3125 25.7827 17.7732 25.7827 19.575C25.7827 21.3768 27.2434 22.8375 29.0452 22.8375Z" fill="black"/>
<path d="M23.7891 30.7672V28.8188H23.7438C23.7438 28.5922 23.925 28.411 24.1516 28.411C24.3781 28.411 24.5594 28.5922 24.5594 28.8188V30.7672H33.5766V28.8188H33.5312C33.5312 28.5922 33.7125 28.411 33.9391 28.411C34.1656 28.411 34.3469 28.5922 34.3469 28.8188V30.7672H37.1562V28.0032C37.1562 25.7375 35.3438 23.925 33.0781 23.925H24.9219C22.6562 23.925 20.8438 25.7375 20.8438 28.0032V30.7672H23.7891Z" fill="black"/>
</svg>
