<svg width="35px" height="35px" viewBox="0 0 42 42" fill="none">
<g clip-path="url(#clip0_126_203)">
<path d="M13.3 28.7002H0.699973C0.313359 28.7002 0 29.0136 0 29.4002V37.8002C0 38.1868 0.313359 38.5001 0.699973 38.5001H4.81204C4.50179 39.7088 3.40643 40.6001 2.1 40.6001C1.16665 40.6001 1.16665 42.0002 2.1 42.0002H11.9C12.8334 42.0002 12.8334 40.6001 11.9 40.6001C10.5936 40.6001 9.49823 39.7088 9.18799 38.5001H13.3001C13.6867 38.5001 14 38.1868 14 37.8002V29.4002C14 29.0136 13.6866 28.7002 13.3 28.7002ZM8.76816 40.6001H5.23179C5.749 40.022 6.10821 39.2995 6.242 38.5001H7.75786C7.89182 39.2995 8.25103 40.022 8.76816 40.6001ZM12.6 37.1002H8.4H5.60003H1.40003V30.1002H12.6V37.1002Z" fill="black"/>
<path d="M21.0002 19.6C21.0003 19.6 21.0003 19.6 21.0004 19.6C21.0005 19.6 21.0006 19.6 21.0007 19.6C26.4131 19.5997 30.8003 15.2125 30.8003 9.79995C30.8003 4.38744 26.4131 0.000246094 21.0007 0C21.0006 0 21.0005 0 21.0005 0C21.0004 0 21.0003 0 21.0002 0C15.5876 0 11.2002 4.38736 11.2002 9.80003C11.2002 15.2127 15.5876 19.6 21.0002 19.6ZM12.6295 10.5H15.524C15.6311 13.2942 16.3753 15.7857 17.5309 17.4522C14.8242 16.2232 12.8853 13.6004 12.6295 10.5ZM21.7002 18.0674V10.5H25.075C24.9139 14.3472 23.441 17.4069 21.7002 18.0674ZM21.7002 9.09997V1.53259C23.441 2.19302 24.9139 5.25287 25.075 9.09997H21.7002ZM20.3002 1.53275V9.10006H16.9252C17.0863 5.25328 18.5594 2.19352 20.3002 1.53275ZM20.3002 10.5V18.0673C18.5594 17.4065 17.0863 14.3467 16.9252 10.5H20.3002ZM24.4699 17.4521C25.6251 15.7856 26.3692 13.2941 26.4762 10.5H29.3709C29.1152 13.6003 27.1764 16.223 24.4699 17.4521ZM29.3709 9.09997H26.4762C26.3692 6.30574 25.6251 3.81437 24.4699 2.14791C27.1764 3.37698 29.1152 5.99968 29.3709 9.09997ZM17.5308 2.14774C16.3753 3.81429 15.631 6.30574 15.5239 9.09997H12.6294C12.8853 5.9996 14.8242 3.37682 17.5308 2.14774Z" fill="black"/>
<path d="M41.3 28.7002H28.7C28.3134 28.7002 28 29.0136 28 29.4002V37.8002C28 38.1868 28.3134 38.5001 28.7 38.5001H32.812C32.5018 39.7088 31.4064 40.6001 30.1 40.6001C29.1666 40.6001 29.1666 42.0002 30.1 42.0002H39.8999C40.8333 42.0002 40.8333 40.6001 39.8999 40.6001C38.5935 40.6001 37.4981 39.7088 37.1879 38.5001H41.3C41.6866 38.5001 41.9999 38.1868 41.9999 37.8002V29.4002C41.9999 29.0136 41.6866 28.7002 41.3 28.7002ZM36.7682 40.6001H33.2318C33.749 40.022 34.1082 39.2995 34.242 38.5001H35.7579C35.8917 39.2995 36.2509 40.022 36.7682 40.6001ZM40.5999 37.1002H36.3999H33.5999H29.3999V30.1002H40.5999V37.1002Z" fill="black"/>
<path d="M34.2998 26.5999C34.2998 26.9866 34.6131 27.2999 34.9997 27.2999C35.3864 27.2999 35.6997 26.9866 35.6997 26.5999V23.8C35.6997 23.4134 35.3864 23.1 34.9997 23.1H21.6998V21.7C21.6998 21.3134 21.3864 21 20.9998 21C20.6132 21 20.2998 21.3134 20.2998 21.7V23.0999H6.99978C6.61316 23.0999 6.2998 23.4133 6.2998 23.7999V26.5999C6.2998 26.9865 6.61316 27.2998 6.99978 27.2998C7.38639 27.2998 7.69975 26.9865 7.69975 26.5999V24.4999H34.2998V26.5999Z" fill="black"/>
</g>
<defs>
<clipPath id="clip0_126_203">
<rect width="42" height="42" fill="white"/>
</clipPath>
</defs>
</svg>
