<svg width="35px" height="35px" viewBox="0 0 45 45" fill="none">
<path d="M16.875 26.25H11.25" stroke="#1C274C" stroke-width="3" stroke-linecap="round"/>
<path d="M35.625 18.75H9.375" stroke="#1C274C" stroke-width="3" stroke-linecap="round"/>
<path d="M31.875 24.375C32.9105 24.375 33.75 25.2145 33.75 26.25C33.75 27.2855 32.9105 28.125 31.875 28.125C30.8395 28.125 30 27.2855 30 26.25C30 25.2145 30.8395 24.375 31.875 24.375Z" fill="#1C274C"/>
<path d="M28.125 14.0625H16.875" stroke="#1C274C" stroke-width="3" stroke-linecap="round"/>
<path d="M24.375 9.375H16.875" stroke="#1C274C" stroke-width="3" stroke-linecap="round"/>
<path d="M41.25 22.5C41.25 17.1968 41.25 14.5451 39.6024 12.8976C38.4 11.6951 36.6628 11.3702 33.75 11.2824M11.25 11.2824C8.33728 11.3702 6.59996 11.6951 5.39752 12.8976C3.75 14.5451 3.75 17.1968 3.75 22.5C3.75 27.8033 3.75 30.4549 5.39752 32.1025C7.04505 33.75 9.69669 33.75 15 33.75H30C35.3032 33.75 37.9549 33.75 39.6024 32.1025C40.1646 31.5403 40.5349 30.8613 40.7788 30" stroke="#1C274C" stroke-width="3" stroke-linecap="round"/>
<path d="M33.7176 33.75C33.6298 36.6627 33.3049 38.4 32.1024 39.6025C30.4549 41.25 27.8032 41.25 22.5 41.25C17.1967 41.25 14.5451 41.25 12.8975 39.6025C11.6951 38.4 11.3702 36.6627 11.2825 33.75M33.75 16.875V15C33.75 9.69675 33.75 7.04513 32.1024 5.39757C30.9 4.19513 29.1628 3.87019 26.25 3.78244M11.25 16.875V15C11.25 9.69675 11.25 7.04513 12.8975 5.39757C14.1 4.19513 15.8373 3.87019 18.75 3.78244" stroke="#1C274C" stroke-width="3" stroke-linecap="round"/>
</svg>
