<svg width="35px" height="35px" viewBox="0 0 42 42" fill="none">
<path d="M29.285 31.2622H25.2572C24.5764 31.2622 24.0268 31.8118 24.0268 32.4927C24.0268 33.1735 24.5764 33.7231 25.2572 33.7231H29.285C29.9658 33.7231 30.5154 33.1735 30.5154 32.4927C30.5154 31.8118 29.9658 31.2622 29.285 31.2622ZM19.9908 31.2622H6.0332C5.35234 31.2622 4.80273 31.8118 4.80273 32.4927C4.80273 33.1735 5.35234 33.7231 6.0332 33.7231H19.9908C20.6717 33.7231 21.2213 33.1735 21.2213 32.4927C21.2213 31.8118 20.6717 31.2622 19.9908 31.2622Z" fill="white"/>
<path d="M34.3816 5.33301L37.0701 8.0215L34.6919 10.3997L32.0034 7.71118L34.3816 5.33301Z" fill="#FFB89A"/>
<path d="M30.5035 39.207H8.03105C5.82852 39.207 4.03613 37.4146 4.03613 35.2121V7.16973C4.03613 4.96719 5.82852 3.1748 8.03105 3.1748H25.2248C25.9057 3.1748 26.4553 3.72441 26.4553 4.40527C26.4553 5.08613 25.9057 5.63574 25.2248 5.63574H8.03105C7.18613 5.63574 6.49707 6.3248 6.49707 7.16973V35.2121C6.49707 36.057 7.18613 36.7461 8.03105 36.7461H30.5035C31.3484 36.7461 32.0375 36.057 32.0375 35.2121V19.0109C32.0375 18.3301 32.5871 17.7805 33.268 17.7805C33.9488 17.7805 34.4984 18.3301 34.4984 19.0109V35.2162C34.4984 37.4146 32.7061 39.207 30.5035 39.207Z" fill="black"/>
<path d="M37.2299 5.00805L35.6221 3.40024C34.6377 2.41587 32.952 2.502 31.8609 3.59301L17.2061 18.252L14.2324 26.3977L22.3781 23.4282L37.0371 8.76919C37.5334 8.2729 37.841 7.63305 37.9025 6.9645C37.9764 6.22211 37.7262 5.50844 37.2299 5.00805ZM21.0246 21.2995L18.3545 22.2715L19.3266 19.6014L30.1834 8.74458L31.8609 10.4549L21.0246 21.2995ZM35.298 7.03012L33.6041 8.72407L31.9266 7.01372L33.6041 5.33618C33.7312 5.20903 33.8584 5.17622 33.9158 5.17622L35.458 6.7184C35.4539 6.77172 35.4211 6.90297 35.298 7.03012Z" fill="black"/>
</svg>
