<svg width="35px" height="35px" viewBox="0 0 42 42" fill="none">
<path d="M24.8229 4.10156H19.0725C19.0725 4.10156 16.5869 4.15078 16.5869 6.60352" fill="white"/>
<path d="M16.5869 7.21875C16.2506 7.21875 15.9717 6.93984 15.9717 6.60352C15.9717 4.18359 17.9896 3.51094 19.0643 3.48633H19.0725H24.8229C25.1592 3.48633 25.4381 3.76523 25.4381 4.10156C25.4381 4.43789 25.1592 4.7168 24.8229 4.7168H19.0807C18.8756 4.725 17.2021 4.83984 17.2021 6.60352C17.2021 6.93984 16.9232 7.21875 16.5869 7.21875Z" fill="black"/>
<path d="M20.7295 9.16284C20.3932 9.16284 20.1143 8.88394 20.1143 8.54761V4.61011C20.1143 4.27378 20.3932 3.99487 20.7295 3.99487C21.0658 3.99487 21.3447 4.27378 21.3447 4.61011V8.54761C21.3447 8.88394 21.0658 9.16284 20.7295 9.16284Z" fill="black"/>
<path d="M29.0063 38.5136H12.9856C11.8454 38.5136 10.9185 37.5867 10.9185 36.4464V24.4207C10.9185 19.9007 14.6017 16.2175 19.1216 16.2175H22.8622C27.3821 16.2175 31.0653 19.9007 31.0653 24.4207V28.2679C31.0653 28.6042 30.7864 28.8832 30.4501 28.8832C30.1138 28.8832 29.8349 28.6042 29.8349 28.2679V24.4207C29.8349 20.5734 26.7095 17.448 22.8622 17.448H19.1216C15.2743 17.448 12.1489 20.5734 12.1489 24.4207V36.4464C12.1489 36.9058 12.5263 37.2832 12.9856 37.2832H29.0063C29.4657 37.2832 29.8431 36.9058 29.8431 36.4464V30.7289C29.8431 30.3925 30.122 30.1136 30.4583 30.1136C30.7946 30.1136 31.0735 30.3925 31.0735 30.7289V36.4464C31.0735 37.5867 30.1466 38.5136 29.0063 38.5136Z" fill="black"/>
<path d="M22.4028 32.4024H19.5974C19.056 32.4024 18.6212 31.9677 18.6212 31.4263V29.7446H16.9396C16.3981 29.7446 15.9634 29.3099 15.9634 28.7685V25.9548C15.9634 25.4134 16.3981 24.9786 16.9396 24.9786H18.6212V23.297C18.6212 22.7556 19.056 22.3208 19.5974 22.3208H22.4028C22.9442 22.3208 23.379 22.7556 23.379 23.297V24.9786H25.0606C25.602 24.9786 26.0368 25.4134 26.0368 25.9548V28.7685C26.0368 29.3099 25.602 29.7446 25.0606 29.7446H23.379V31.4263C23.379 31.9677 22.9442 32.4024 22.4028 32.4024ZM19.8517 31.172H22.1485V29.4903C22.1485 28.9489 22.5833 28.5142 23.1247 28.5142H24.8063V26.2091H23.1247C22.5833 26.2091 22.1485 25.7743 22.1485 25.2329V23.5513H19.8517V25.2329C19.8517 25.7743 19.4169 26.2091 18.8755 26.2091H17.1938V28.5142H18.8755C19.4169 28.5142 19.8517 28.9489 19.8517 29.4903V31.172Z" fill="black"/>
<path d="M25.9219 18.0878C25.8398 18.0878 25.7496 18.0714 25.6758 18.0386C24.7898 17.6449 23.8383 17.448 22.8621 17.448H19.1215C18.1535 17.448 17.2102 17.6449 16.3242 18.0304C16.1355 18.1125 15.9141 18.096 15.7418 17.9812C15.5695 17.8664 15.4629 17.6777 15.4629 17.4644V13.5269C15.4629 12.3867 16.3898 11.4597 17.5301 11.4597H24.4699C25.6102 11.4597 26.5371 12.3867 26.5371 13.5269V17.4726C26.5371 17.6777 26.4305 17.8746 26.2582 17.9894C26.1598 18.055 26.0367 18.0878 25.9219 18.0878ZM19.1215 16.2175H22.8621C23.6988 16.2175 24.5191 16.3406 25.3066 16.5867V13.5269C25.3066 13.0675 24.9293 12.6902 24.4699 12.6902H17.5301C17.0707 12.6902 16.6934 13.0675 16.6934 13.5269V16.5867C17.4727 16.3406 18.293 16.2175 19.1215 16.2175Z" fill="black"/>
<path d="M23.9284 12.6902H18.0796C17.7433 12.6902 17.4644 12.4113 17.4644 12.075V9.99956C17.4644 8.85933 18.3913 7.93237 19.5315 7.93237H22.4765C23.6167 7.93237 24.5437 8.85933 24.5437 9.99956V12.075C24.5437 12.4113 24.2647 12.6902 23.9284 12.6902ZM18.6948 11.4597H23.3132V9.99956C23.3132 9.54019 22.9358 9.16284 22.4765 9.16284H19.5315C19.0722 9.16284 18.6948 9.54019 18.6948 9.99956V11.4597Z" fill="black"/>
</svg>
