<svg width="35px" height="35px" viewBox="0 0 42 42" fill="none">
<path d="M14.4375 19.0312C13.3501 19.0312 12.4688 19.9126 12.4688 21V22.3125C12.4688 23.3999 13.3501 24.2812 14.4375 24.2812C15.5249 24.2812 16.4062 23.3999 16.4062 22.3125V21C16.4062 19.9126 15.5249 19.0312 14.4375 19.0312Z" fill="#231F20"/>
<path d="M14.4375 15.0938C10.0885 15.0938 6.5625 18.6198 6.5625 22.9688C6.5625 24.9847 7.32703 26.819 8.57325 28.2115C9.41259 27.1202 11.1654 25.5938 14.4375 25.5938C12.6249 25.5938 11.1562 24.1251 11.1562 22.3125V21C11.1562 19.1874 12.6249 17.7188 14.4375 17.7188C16.2501 17.7188 17.7188 19.1874 17.7188 21V22.3125C17.7188 24.1251 16.2501 25.5938 14.4375 25.5938C17.7096 25.5938 19.4624 27.1202 20.3018 28.2115C21.548 26.819 22.3125 24.9847 22.3125 22.9688C22.3125 18.6198 18.7865 15.0938 14.4375 15.0938Z" fill="#231F20"/>
<path d="M14.4374 26.9062C11.5755 26.9062 10.1435 28.2713 9.5293 29.1204C10.8753 30.1967 12.5795 30.8438 14.4374 30.8438C16.2952 30.8438 17.9995 30.1967 19.3461 29.1204C18.7325 28.2726 17.3006 26.9062 14.4374 26.9062Z" fill="#231F20"/>
<path d="M39.375 7.21875H34.125V3.9375C34.125 3.57459 33.8317 3.28125 33.4688 3.28125H29.5312C29.1683 3.28125 28.875 3.57459 28.875 3.9375V7.21875H13.125V3.9375C13.125 3.57459 12.8317 3.28125 12.4688 3.28125H8.53125C8.16834 3.28125 7.875 3.57459 7.875 3.9375V7.21875H2.625C1.17403 7.21875 0 8.39278 0 9.84375V36.0938C0 37.5447 1.17403 38.7188 2.625 38.7188H39.375C40.826 38.7188 42 37.5447 42 36.0938V9.84375C42 8.39278 40.826 7.21875 39.375 7.21875ZM30.1875 4.59375H32.8125V9.84375H30.1875V4.59375ZM26.9062 16.4062H30.8438C31.2067 16.4062 31.5 16.6996 31.5 17.0625C31.5 17.4254 31.2067 17.7188 30.8438 17.7188H26.9062C26.5433 17.7188 26.25 17.4254 26.25 17.0625C26.25 16.6996 26.5433 16.4062 26.9062 16.4062ZM9.1875 4.59375H11.8125V9.84375H9.1875V4.59375ZM14.4375 32.1562C9.36403 32.1562 5.25 28.0422 5.25 22.9688C5.25 17.8953 9.36403 13.7812 14.4375 13.7812C19.511 13.7812 23.625 17.8953 23.625 22.9688C23.625 28.0422 19.511 32.1562 14.4375 32.1562ZM36.0938 29.5312H26.9062C26.5433 29.5312 26.25 29.2379 26.25 28.875C26.25 28.5121 26.5433 28.2188 26.9062 28.2188H36.0938C36.4567 28.2188 36.75 28.5121 36.75 28.875C36.75 29.2379 36.4567 29.5312 36.0938 29.5312ZM26.25 24.9375C26.25 24.5746 26.5433 24.2812 26.9062 24.2812H33.4688C33.8317 24.2812 34.125 24.5746 34.125 24.9375C34.125 25.3004 33.8317 25.5938 33.4688 25.5938H26.9062C26.5433 25.5938 26.25 25.3004 26.25 24.9375ZM36.0938 21.6562H26.9062C26.5433 21.6562 26.25 21.3629 26.25 21C26.25 20.6371 26.5433 20.3438 26.9062 20.3438H36.0938C36.4567 20.3438 36.75 20.6371 36.75 21C36.75 21.3629 36.4567 21.6562 36.0938 21.6562Z" fill="#231F20"/>
</svg>
