<svg width="35px" height="35px" viewBox="0 0 42 42" fill="none">
<path d="M28.122 25.8298C28.3083 26.0094 28.4574 26.2241 28.5607 26.4614C28.664 26.6988 28.7194 26.9541 28.7239 27.2129C28.7284 27.4718 28.6818 27.7289 28.5868 27.9697C28.4918 28.2104 28.3502 28.4301 28.1702 28.6161C27.9902 28.8021 27.7753 28.9508 27.5377 29.0536C27.3002 29.1565 27.0447 29.2115 26.7859 29.2155C26.5271 29.2195 26.27 29.1724 26.0294 29.077C25.7888 28.9815 25.5694 28.8395 25.3837 28.6592C24.201 27.5342 22.6312 26.9067 20.9988 26.9067C19.3665 26.9067 17.7966 27.5342 16.6139 28.6592C16.2385 29.0212 15.7348 29.2194 15.2133 29.2104C14.6919 29.2014 14.1953 28.9859 13.8327 28.6111C13.47 28.2364 13.2708 27.733 13.2789 27.2115C13.2869 26.6901 13.5016 26.1931 13.8756 25.8298C15.7927 23.994 18.3445 22.9692 20.9988 22.9692C23.6531 22.9692 26.2049 23.994 28.122 25.8298ZM20.9988 15.0942C16.2469 15.0759 11.6806 16.9373 8.29568 20.2725C7.92356 20.6386 7.71212 21.1376 7.70786 21.6597C7.70361 22.1818 7.90689 22.6841 8.27299 23.0563C8.6391 23.4285 9.13805 23.6401 9.66011 23.6445C10.1822 23.6488 10.6846 23.4457 11.0569 23.0796C13.7155 20.4845 17.2835 19.0317 20.9988 19.0317C24.7141 19.0317 28.2821 20.4845 30.9408 23.0796C31.313 23.4458 31.8155 23.6491 32.3376 23.6448C32.8598 23.6404 33.3588 23.4289 33.725 23.0566C34.0911 22.6844 34.2944 22.1819 34.2901 21.6598C34.2858 21.1377 34.0742 20.6386 33.702 20.2725C30.3171 16.9373 25.7507 15.0759 20.9988 15.0942ZM39.2701 14.708C34.3994 9.90922 27.8364 7.21924 20.9988 7.21924C14.1613 7.21924 7.59823 9.90922 2.72757 14.708C2.54359 14.8898 2.39724 15.1061 2.29687 15.3444C2.1965 15.5828 2.14408 15.8386 2.14261 16.0973C2.14114 16.3559 2.19065 16.6123 2.2883 16.8518C2.38595 17.0913 2.52984 17.3092 2.71174 17.4931C2.89364 17.6769 3.10998 17.8231 3.34841 17.9234C3.58684 18.0236 3.84269 18.0759 4.10132 18.0772C4.35996 18.0785 4.61632 18.0288 4.85575 17.931C5.09519 17.8332 5.31301 17.6892 5.49677 17.5072C9.63027 13.4377 15.1982 11.1567 20.9988 11.1567C26.7994 11.1567 32.3674 13.4377 36.5009 17.5072C36.6847 17.689 36.9025 17.8329 37.1419 17.9305C37.3813 18.0282 37.6375 18.0777 37.8961 18.0763C38.1546 18.0749 38.4103 18.0226 38.6487 17.9224C38.887 17.8222 39.1032 17.676 39.2851 17.4922C39.4669 17.3084 39.6107 17.0906 39.7084 16.8512C39.806 16.6118 39.8556 16.3556 39.8542 16.097C39.8528 15.8385 39.8005 15.5828 39.7003 15.3444C39.6001 15.1061 39.4539 14.8899 39.2701 14.708ZM21.0001 30.1875C20.4809 30.1875 19.9734 30.3415 19.5417 30.6299C19.1101 30.9183 18.7736 31.3283 18.5749 31.808C18.3762 32.2876 18.3243 32.8154 18.4255 33.3246C18.5268 33.8338 18.7768 34.3015 19.144 34.6687C19.5111 35.0358 19.9788 35.2858 20.488 35.3871C20.9972 35.4884 21.525 35.4364 22.0047 35.2377C22.4843 35.039 22.8943 34.7026 23.1827 34.2709C23.4712 33.8392 23.6251 33.3317 23.6251 32.8125C23.6243 32.1166 23.3475 31.4493 22.8554 30.9572C22.3633 30.4651 21.6961 30.1883 21.0001 30.1875Z" fill="black"/>
</svg>
